<svg width="28" height="28" viewBox="0 0 28 28" fill="none" xmlns="http://www.w3.org/2000/svg">
<path d="M15.1667 12.8333H8.16671C7.85729 12.8333 7.56054 12.9562 7.34175 13.175C7.12296 13.3938 7.00004 13.6906 7.00004 14C7.00004 14.3094 7.12296 14.6062 7.34175 14.825C7.56054 15.0437 7.85729 15.1667 8.16671 15.1667H15.1667C15.4761 15.1667 15.7729 15.0437 15.9917 14.825C16.2105 14.6062 16.3334 14.3094 16.3334 14C16.3334 13.6906 16.2105 13.3938 15.9917 13.175C15.7729 12.9562 15.4761 12.8333 15.1667 12.8333ZM19.8334 8.16666H8.16671C7.85729 8.16666 7.56054 8.28958 7.34175 8.50837C7.12296 8.72716 7.00004 9.02391 7.00004 9.33333C7.00004 9.64275 7.12296 9.93949 7.34175 10.1583C7.56054 10.3771 7.85729 10.5 8.16671 10.5H19.8334C20.1428 10.5 20.4395 10.3771 20.6583 10.1583C20.8771 9.93949 21 9.64275 21 9.33333C21 9.02391 20.8771 8.72716 20.6583 8.50837C20.4395 8.28958 20.1428 8.16666 19.8334 8.16666ZM22.1667 2.33333H5.83337C4.90512 2.33333 4.01488 2.70208 3.3585 3.35845C2.70212 4.01483 2.33337 4.90507 2.33337 5.83333V17.5C2.33337 18.4283 2.70212 19.3185 3.3585 19.9749C4.01488 20.6312 4.90512 21 5.83337 21H19.355L23.6717 25.3283C23.7807 25.4365 23.91 25.522 24.0522 25.5801C24.1943 25.6381 24.3465 25.6675 24.5 25.6667C24.6531 25.6706 24.8049 25.6386 24.9434 25.5733C25.1564 25.4858 25.3388 25.3372 25.4675 25.1462C25.5963 24.9552 25.6656 24.7303 25.6667 24.5V5.83333C25.6667 4.90507 25.298 4.01483 24.6416 3.35845C23.9852 2.70208 23.095 2.33333 22.1667 2.33333ZM23.3334 21.6883L20.6617 19.005C20.5527 18.8969 20.4234 18.8113 20.2813 18.7533C20.1391 18.6952 19.9869 18.6658 19.8334 18.6667H5.83337C5.52396 18.6667 5.22721 18.5437 5.00842 18.325C4.78962 18.1062 4.66671 17.8094 4.66671 17.5V5.83333C4.66671 5.52391 4.78962 5.22716 5.00842 5.00837C5.22721 4.78958 5.52396 4.66666 5.83337 4.66666H22.1667C22.4761 4.66666 22.7729 4.78958 22.9917 5.00837C23.2105 5.22716 23.3334 5.52391 23.3334 5.83333V21.6883Z" fill="#717986"/>
</svg>
