<svg width="28" height="28" viewBox="0 0 28 28" fill="none" xmlns="http://www.w3.org/2000/svg">
<path d="M24.8734 11.1417L22.6684 10.4067L23.7067 8.33C23.812 8.11263 23.8472 7.86796 23.8075 7.62973C23.7678 7.39151 23.6551 7.17148 23.485 7L21 4.515C20.8277 4.34243 20.6055 4.22824 20.3648 4.18848C20.1242 4.14872 19.8771 4.18539 19.6584 4.29333L17.5817 5.33167L16.8467 3.12667C16.7691 2.89682 16.6217 2.6969 16.4252 2.5547C16.2286 2.41251 15.9926 2.33513 15.75 2.33333H12.25C12.0055 2.3327 11.7669 2.40895 11.568 2.55131C11.3691 2.69367 11.22 2.89494 11.1417 3.12667L10.4067 5.33167L8.33004 4.29333C8.11268 4.18808 7.868 4.15287 7.62978 4.19257C7.39155 4.23228 7.17152 4.34493 7.00004 4.515L4.51504 7C4.34248 7.17239 4.22829 7.39454 4.18852 7.6352C4.14876 7.87586 4.18543 8.12293 4.29338 8.34167L5.33171 10.4183L3.12671 11.1533C2.89687 11.231 2.69694 11.3783 2.55475 11.5749C2.41256 11.7714 2.33518 12.0074 2.33338 12.25V15.75C2.33275 15.9946 2.409 16.2332 2.55136 16.4321C2.69372 16.631 2.89499 16.7801 3.12671 16.8583L5.33171 17.5933L4.29338 19.67C4.18812 19.8874 4.15292 20.132 4.19262 20.3703C4.23232 20.6085 4.34498 20.8285 4.51504 21L7.00004 23.485C7.17244 23.6576 7.39458 23.7718 7.63524 23.8115C7.8759 23.8513 8.12297 23.8146 8.34171 23.7067L10.4184 22.6683L11.1534 24.8733C11.2316 25.1051 11.3808 25.3063 11.5796 25.4487C11.7785 25.591 12.0171 25.6673 12.2617 25.6667H15.7617C16.0063 25.6673 16.2449 25.591 16.4438 25.4487C16.6427 25.3063 16.7918 25.1051 16.87 24.8733L17.605 22.6683L19.6817 23.7067C19.8977 23.8093 20.14 23.843 20.3758 23.8034C20.6116 23.7637 20.8295 23.6526 21 23.485L23.485 21C23.6576 20.8276 23.7718 20.6055 23.8116 20.3648C23.8513 20.1241 23.8147 19.8771 23.7067 19.6583L22.6684 17.5817L24.8734 16.8467C25.1032 16.769 25.3031 16.6217 25.4453 16.4251C25.5875 16.2286 25.6649 15.9926 25.6667 15.75V12.25C25.6673 12.0054 25.5911 11.7668 25.4487 11.5679C25.3064 11.369 25.1051 11.2199 24.8734 11.1417ZM23.3334 14.91L21.9334 15.3767C21.6114 15.4811 21.3161 15.6543 21.0678 15.8843C20.8195 16.1143 20.6242 16.3955 20.4954 16.7085C20.3667 17.0215 20.3075 17.3588 20.3222 17.6969C20.3368 18.035 20.4248 18.3659 20.58 18.6667L21.245 19.9967L19.9617 21.28L18.6667 20.58C18.3675 20.4309 18.0398 20.3479 17.7057 20.3365C17.3717 20.3251 17.0391 20.3856 16.7304 20.514C16.4218 20.6423 16.1443 20.8354 15.9168 21.0803C15.6893 21.3252 15.517 21.6161 15.4117 21.9333L14.945 23.3333H13.09L12.6234 21.9333C12.519 21.6114 12.3457 21.316 12.1158 21.0677C11.8858 20.8194 11.6045 20.6241 11.2915 20.4954C10.9785 20.3666 10.6413 20.3075 10.3031 20.3221C9.96501 20.3367 9.6341 20.4247 9.33338 20.58L8.00338 21.245L6.72004 19.9617L7.42004 18.6667C7.57532 18.3659 7.66332 18.035 7.67793 17.6969C7.69254 17.3588 7.63342 17.0215 7.50467 16.7085C7.37592 16.3955 7.18062 16.1143 6.93231 15.8843C6.68401 15.6543 6.38865 15.4811 6.06671 15.3767L4.66671 14.91V13.09L6.06671 12.6233C6.38865 12.5189 6.68401 12.3457 6.93231 12.1157C7.18062 11.8857 7.37592 11.6045 7.50467 11.2915C7.63342 10.9785 7.69254 10.6412 7.67793 10.3031C7.66332 9.96496 7.57532 9.63406 7.42004 9.33333L6.75504 8.03833L8.03838 6.755L9.33338 7.42C9.6341 7.57527 9.96501 7.66327 10.3031 7.67789C10.6413 7.6925 10.9785 7.63338 11.2915 7.50463C11.6045 7.37587 11.8858 7.18057 12.1158 6.93227C12.3457 6.68396 12.519 6.3886 12.6234 6.06667L13.09 4.66667H14.91L15.3767 6.06667C15.4811 6.3886 15.6543 6.68396 15.8843 6.93227C16.1143 7.18057 16.3956 7.37587 16.7086 7.50463C17.0216 7.63338 17.3588 7.6925 17.6969 7.67789C18.0351 7.66327 18.366 7.57527 18.6667 7.42L19.9967 6.755L21.28 8.03833L20.58 9.33333C20.431 9.63252 20.3479 9.96024 20.3366 10.2943C20.3252 10.6284 20.3857 10.961 20.514 11.2696C20.6423 11.5783 20.8355 11.8557 21.0804 12.0833C21.3252 12.3108 21.6161 12.483 21.9334 12.5883L23.3334 13.055V14.91ZM14 9.33333C13.0771 9.33333 12.1748 9.60703 11.4074 10.1198C10.64 10.6326 10.0418 11.3614 9.68861 12.2141C9.3354 13.0669 9.24298 14.0052 9.42305 14.9104C9.60311 15.8157 10.0476 16.6472 10.7002 17.2998C11.3529 17.9525 12.1844 18.3969 13.0896 18.577C13.9949 18.7571 14.9332 18.6646 15.7859 18.3114C16.6386 17.9582 17.3675 17.3601 17.8802 16.5927C18.393 15.8252 18.6667 14.923 18.6667 14C18.6667 12.7623 18.175 11.5753 17.2999 10.7002C16.4247 9.825 15.2377 9.33333 14 9.33333ZM14 16.3333C13.5386 16.3333 13.0874 16.1965 12.7037 15.9401C12.32 15.6837 12.0209 15.3193 11.8443 14.8929C11.6677 14.4666 11.6215 13.9974 11.7115 13.5448C11.8016 13.0922 12.0238 12.6764 12.3501 12.3501C12.6765 12.0238 13.0922 11.8015 13.5448 11.7115C13.9975 11.6215 14.4666 11.6677 14.893 11.8443C15.3193 12.0209 15.6837 12.32 15.9401 12.7037C16.1965 13.0874 16.3334 13.5385 16.3334 14C16.3334 14.6188 16.0875 15.2123 15.65 15.6499C15.2124 16.0875 14.6189 16.3333 14 16.3333Z" fill="#717986"/>
</svg>
